<?xml version="1.0" standalone="no"?><!DOCTYPE svg PUBLIC "-//W3C//DTD SVG 1.1//EN" "http://www.w3.org/Graphics/SVG/1.1/DTD/svg11.dtd"><svg t="1650939889054" class="icon" viewBox="0 0 1024 1024" version="1.1" xmlns="http://www.w3.org/2000/svg" p-id="915" xmlns:xlink="http://www.w3.org/1999/xlink" width="32" height="32"><defs><style type="text/css">@font-face { font-family: feedback-iconfont; src: url("//at.alicdn.com/t/font_1031158_u69w8yhxdu.woff2?t=1630033759944") format("woff2"), url("//at.alicdn.com/t/font_1031158_u69w8yhxdu.woff?t=1630033759944") format("woff"), url("//at.alicdn.com/t/font_1031158_u69w8yhxdu.ttf?t=1630033759944") format("truetype"); }
</style></defs><path d="M885.3504 263.168H138.6496a40.96 40.96 0 0 1 0-81.92h746.7008a40.96 40.96 0 0 1 0 81.92z m0 290.4064H138.6496a40.96 40.96 0 0 1 0-83.1488h746.7008a40.96 40.96 0 0 1 0 83.1488z m0 290.2016H138.6496a40.96 40.96 0 0 1 0-82.944h746.7008a40.96 40.96 0 0 1 0 82.944z m0 0" p-id="916"></path><path d="M263.168 220.7744a81.92 81.92 0 1 0 81.92-81.92 81.92 81.92 0 0 0-81.92 81.92z m0 0" p-id="917"></path><path d="M346.112 346.112a124.5184 124.5184 0 1 1 124.928-124.5184 124.5184 124.5184 0 0 1-124.928 124.5184z m0-165.888a40.96 40.96 0 1 0 40.96 40.96 40.96 40.96 0 0 0-40.96-40.96z m0 0M263.168 803.2256a81.92 81.92 0 1 0 81.92-81.92 82.944 82.944 0 0 0-81.92 81.92z m0 0" p-id="918"></path><path d="M346.112 926.72a124.5184 124.5184 0 1 1 124.928-124.3136 124.5184 124.5184 0 0 1-124.3136 124.3136z m0-165.888a40.96 40.96 0 1 0 40.96 40.96 40.96 40.96 0 0 0-40.96-40.96z m0 0M594.944 512a82.944 82.944 0 1 0 82.944-82.944A81.92 81.92 0 0 0 594.944 512z m0 0" p-id="919"></path><path d="M677.888 636.5184A124.5184 124.5184 0 1 1 802.4064 512a124.5184 124.5184 0 0 1-124.5184 124.5184z m0-166.0928a40.96 40.96 0 1 0 40.96 40.96 40.96 40.96 0 0 0-40.96-40.96z m0 0" p-id="920"></path></svg>