<?xml version="1.0" standalone="no"?><!DOCTYPE svg PUBLIC "-//W3C//DTD SVG 1.1//EN" "http://www.w3.org/Graphics/SVG/1.1/DTD/svg11.dtd"><svg t="1650939906196" class="icon" viewBox="0 0 1024 1024" version="1.1" xmlns="http://www.w3.org/2000/svg" p-id="1108" xmlns:xlink="http://www.w3.org/1999/xlink" width="32" height="32"><defs><style type="text/css">@font-face { font-family: feedback-iconfont; src: url("//at.alicdn.com/t/font_1031158_u69w8yhxdu.woff2?t=1630033759944") format("woff2"), url("//at.alicdn.com/t/font_1031158_u69w8yhxdu.woff?t=1630033759944") format("woff"), url("//at.alicdn.com/t/font_1031158_u69w8yhxdu.ttf?t=1630033759944") format("truetype"); }
</style></defs><path d="M192 128h640c36.266667 0 64 27.733333 64 64v640c0 36.266667-27.733333 64-64 64H192c-36.266667 0-64-27.733333-64-64V192c0-36.266667 27.733333-64 64-64z" fill="#333333" p-id="1109"></path><path d="M832 917.333333H192c-46.933333 0-85.333333-38.4-85.333333-85.333333V192c0-46.933333 38.4-85.333333 85.333333-85.333333h640c46.933333 0 85.333333 38.4 85.333333 85.333333v640c0 46.933333-38.4 85.333333-85.333333 85.333333zM192 149.333333c-23.466667 0-42.666667 19.2-42.666667 42.666667v640c0 23.466667 19.2 42.666667 42.666667 42.666667h640c23.466667 0 42.666667-19.2 42.666667-42.666667V192c0-23.466667-19.2-42.666667-42.666667-42.666667H192z" fill="#333333" p-id="1110"></path><path d="M469.333333 789.333333h-2.133333c-10.666667-2.133333-17.066667-8.533333-19.2-19.2l-53.333333-384-55.466667 153.6c-2.133333 8.533333-10.666667 14.933333-19.2 14.933334h-64c-12.8 0-21.333333-8.533333-21.333333-21.333334s8.533333-21.333333 21.333333-21.333333h49.066667l81.066666-219.733333c4.266667-8.533333 12.8-14.933333 21.333334-14.933334 10.666667 0 17.066667 8.533333 19.2 19.2L480 682.666667l76.8-200.533334c2.133333-6.4 10.666667-12.8 17.066667-12.8 8.533333 0 14.933333 2.133333 19.2 8.533334l68.266666 102.4 46.933334-61.866667c4.266667-6.4 10.666667-8.533333 17.066666-8.533333h64c12.8 0 21.333333 8.533333 21.333334 21.333333s-8.533333 21.333333-21.333334 21.333333h-53.333333l-57.6 76.8c-4.266667 8.533333-10.666667 10.666667-17.066667 10.666667-6.4 0-12.8-4.266667-17.066666-8.533333l-61.866667-93.866667L490.666667 776.533333c-4.266667 6.4-12.8 12.8-21.333334 12.8z" fill="#FFFFFF" p-id="1111"></path></svg>