<?xml version="1.0" standalone="no"?><!DOCTYPE svg PUBLIC "-//W3C//DTD SVG 1.1//EN" "http://www.w3.org/Graphics/SVG/1.1/DTD/svg11.dtd"><svg t="1650939878283" class="icon" viewBox="0 0 1024 1024" version="1.1" xmlns="http://www.w3.org/2000/svg" p-id="915" xmlns:xlink="http://www.w3.org/1999/xlink" width="32" height="32"><defs><style type="text/css">@font-face { font-family: feedback-iconfont; src: url("//at.alicdn.com/t/font_1031158_u69w8yhxdu.woff2?t=1630033759944") format("woff2"), url("//at.alicdn.com/t/font_1031158_u69w8yhxdu.woff?t=1630033759944") format("woff"), url("//at.alicdn.com/t/font_1031158_u69w8yhxdu.ttf?t=1630033759944") format("truetype"); }
</style></defs><path d="M714.5472 815.7184H309.4528a130.2528 130.2528 0 0 1-130.2528-130.2528V410.8288a332.8 332.8 0 0 1 665.6 0v274.6368a130.2528 130.2528 0 0 1-130.2528 130.2528zM512 164.864a245.76 245.76 0 0 0-245.76 245.76v274.8416a43.4176 43.4176 0 0 0 43.4176 43.4176h404.8896A43.4176 43.4176 0 0 0 757.76 685.4656V410.8288a245.76 245.76 0 0 0-245.76-245.76z m0 0" p-id="916"></path><path d="M463.872 629.9648a33.5872 33.5872 0 0 1-22.9376-9.0112 32.5632 32.5632 0 0 1 0-46.08l80.0768-81.92h-95.8464a32.5632 32.5632 0 0 1-24.576-53.8624L512 311.5008a32.768 32.768 0 0 1 48.9472 43.4176l-63.6928 73.728h102.4a32.5632 32.5632 0 0 1 23.3472 55.0912l-134.5536 137.216a32.1536 32.1536 0 0 1-23.7568 9.0112z m308.4288 315.8016H251.6992a43.4176 43.4176 0 1 1 0-86.6304h520.6016a43.4176 43.4176 0 1 1 0 86.6304z m0 0" p-id="917"></path></svg>