<?xml version="1.0" standalone="no"?><!DOCTYPE svg PUBLIC "-//W3C//DTD SVG 1.1//EN" "http://www.w3.org/Graphics/SVG/1.1/DTD/svg11.dtd"><svg t="1650939897440" class="icon" viewBox="0 0 1024 1024" version="1.1" xmlns="http://www.w3.org/2000/svg" p-id="1065" xmlns:xlink="http://www.w3.org/1999/xlink" width="32" height="32"><defs><style type="text/css">@font-face { font-family: feedback-iconfont; src: url("//at.alicdn.com/t/font_1031158_u69w8yhxdu.woff2?t=1630033759944") format("woff2"), url("//at.alicdn.com/t/font_1031158_u69w8yhxdu.woff?t=1630033759944") format("woff"), url("//at.alicdn.com/t/font_1031158_u69w8yhxdu.ttf?t=1630033759944") format("truetype"); }
</style></defs><path d="M324.608 464.896h-93.3888a140.288 140.288 0 0 1-140.288-140.0832V231.424a140.288 140.288 0 0 1 140.288-140.288h93.3888a140.288 140.288 0 0 1 140.0832 140.288v93.3888a140.0832 140.0832 0 0 1-140.0832 140.0832zM231.2192 184.32A46.8992 46.8992 0 0 0 184.32 231.424v93.3888a47.3088 47.3088 0 0 0 13.5168 32.9728 46.8992 46.8992 0 0 0 33.1776 13.7216h93.3888a45.8752 45.8752 0 0 0 32.9728-13.7216 46.6944 46.6944 0 0 0 13.7216-32.9728V231.424a46.8992 46.8992 0 0 0-13.7216-33.1776 45.8752 45.8752 0 0 0-32.768-13.9264z m560.5376 280.576H698.368a140.0832 140.0832 0 0 1-140.0832-140.0832V231.424a140.288 140.288 0 0 1 140.0832-140.288h93.3888a140.288 140.288 0 0 1 140.288 140.288v93.3888a140.288 140.288 0 0 1-140.288 140.0832zM698.368 184.32a46.8992 46.8992 0 0 0-46.6944 46.8992v93.3888a46.6944 46.6944 0 0 0 46.6944 46.6944h93.3888A46.8992 46.8992 0 0 0 839.68 324.8128V231.424A47.104 47.104 0 0 0 791.7568 184.32zM324.608 932.2496h-93.3888a140.288 140.288 0 0 1-140.288-140.288v-93.3888a140.288 140.288 0 0 1 140.288-140.0832h93.3888a140.0832 140.0832 0 0 1 140.0832 140.0832v93.3888a140.288 140.288 0 0 1-140.0832 140.288z m-93.3888-280.3712A46.6944 46.6944 0 0 0 184.32 698.5728v93.3888A46.6944 46.6944 0 0 0 231.2192 839.68h93.3888a46.6944 46.6944 0 0 0 46.6944-46.6944v-94.4128a46.6944 46.6944 0 0 0-46.6944-46.6944z m0 0" p-id="1066"></path><path d="M792.576 559.7184h-93.3888a140.0832 140.0832 0 0 0-140.0832 140.0832v93.5936a140.0832 140.0832 0 0 0 140.0832 140.0832h93.3888a140.288 140.288 0 0 0 140.288-140.0832v-93.5936a140.288 140.288 0 0 0-140.288-140.0832zM839.68 793.3952A46.8992 46.8992 0 0 1 792.576 839.68h-93.3888a46.6944 46.6944 0 0 1-46.6944-46.6944v-93.184a46.6944 46.6944 0 0 1 46.6944-46.6944h93.3888a46.8992 46.8992 0 0 1 47.104 46.6944z" p-id="1067"></path></svg>