<?xml version="1.0" standalone="no"?><!DOCTYPE svg PUBLIC "-//W3C//DTD SVG 1.1//EN" "http://www.w3.org/Graphics/SVG/1.1/DTD/svg11.dtd"><svg t="1650939932296" class="icon" viewBox="0 0 1024 1024" version="1.1" xmlns="http://www.w3.org/2000/svg" p-id="1692" xmlns:xlink="http://www.w3.org/1999/xlink" width="32" height="32"><defs><style type="text/css">@font-face { font-family: feedback-iconfont; src: url("//at.alicdn.com/t/font_1031158_u69w8yhxdu.woff2?t=1630033759944") format("woff2"), url("//at.alicdn.com/t/font_1031158_u69w8yhxdu.woff?t=1630033759944") format("woff"), url("//at.alicdn.com/t/font_1031158_u69w8yhxdu.ttf?t=1630033759944") format("truetype"); }
</style></defs><path d="M806.954667 959.68c-12.288 0-22.122667-6.4-24.576-17.066667L590.613333 106.645333h-157.312l-191.765333 835.968c-2.453333 10.666667-14.741333 19.2-29.482667 17.066667-12.309333-2.133333-22.122667-12.8-19.669333-25.6L389.034667 81.066667c2.474667-10.666667 12.309333-17.066667 24.597333-17.066667h196.650667c12.288 0 22.122667 6.4 24.597333 17.066667l196.650667 853.013333c2.453333 10.666667-4.906667 23.466667-19.669334 25.6h-4.906666z" fill="#333333" p-id="1693"></path><path d="M722.133333 234.666667h-441.6c-14.72 0-24.533333-8.533333-24.533333-21.333334s9.813333-21.333333 24.533333-21.333333h441.6c14.72 0 24.533333 8.533333 24.533334 21.333333s-9.813333 21.333333-24.533334 21.333334zM807.381333 576H216.618667C201.856 576 192 567.466667 192 554.666667s9.856-21.333333 24.618667-21.333334h590.762666c14.762667 0 24.618667 8.533333 24.618667 21.333334s-9.856 21.333333-24.618667 21.333333z" fill="#333333" p-id="1694"></path><path d="M784.810667 853.333333c-4.842667 0-9.685333 0-12.117334-2.133333L288.682667 594.624c-12.096-6.4-14.506667-19.242667-7.253334-29.930667s21.76-12.842667 33.877334-6.4l484.010666 256.554667c12.096 6.4 14.506667 19.242667 7.253334 29.930667-4.821333 4.266667-14.506667 8.554667-21.76 8.554666z" fill="#333333" p-id="1695"></path><path d="M258.24 853.333333c-7.296 0-17.024-4.245333-19.456-10.624-7.317333-10.602667-4.885333-23.338667 7.296-29.717333L708.48 558.250667c12.16-6.378667 26.773333-4.266667 34.069333 6.357333 7.317333 10.624 4.885333 23.36-7.296 29.738667L272.853333 849.066667c-4.885333 4.245333-9.749333 4.245333-14.613333 4.245333zM301.184 576c-7.168 0-11.946667-2.133333-16.704-6.4-9.536-8.533333-9.536-21.333333 0-29.866667l357.653333-320a24.96 24.96 0 0 1 33.386667 0c9.536 8.533333 9.536 21.333333 0 29.866667L317.866667 569.6c-4.778667 4.266667-9.536 6.4-16.682667 6.4z" fill="#333333" p-id="1696"></path><path d="M722.816 576c-7.146667 0-11.904-2.133333-16.682667-6.4l-357.653333-320c-9.536-8.533333-9.536-21.333333 0-29.866667a24.96 24.96 0 0 1 33.386667 0l357.653333 320c9.536 8.533333 9.536 21.333333 0 29.866667-4.778667 4.266667-9.536 6.4-16.704 6.4z" fill="#333333" p-id="1697"></path></svg>