<?xml version="1.0" standalone="no"?><!DOCTYPE svg PUBLIC "-//W3C//DTD SVG 1.1//EN" "http://www.w3.org/Graphics/SVG/1.1/DTD/svg11.dtd"><svg t="1650939920581" class="icon" viewBox="0 0 1024 1024" version="1.1" xmlns="http://www.w3.org/2000/svg" p-id="1402" xmlns:xlink="http://www.w3.org/1999/xlink" width="32" height="32"><defs><style type="text/css">@font-face { font-family: feedback-iconfont; src: url("//at.alicdn.com/t/font_1031158_u69w8yhxdu.woff2?t=1630033759944") format("woff2"), url("//at.alicdn.com/t/font_1031158_u69w8yhxdu.woff?t=1630033759944") format("woff"), url("//at.alicdn.com/t/font_1031158_u69w8yhxdu.ttf?t=1630033759944") format("truetype"); }
</style></defs><path d="M302.869333 436.437333a10.581333 10.581333 0 0 0-5.12-7.168c-3.072-1.578667-6.144-1.578667-8.746666 0.469334a2657.834667 2657.834667 0 0 0-178.645334 116.266666c-50.730667 38.357333-84.522667 61.44-88.064 83.968 0 1.557333 0.469333 4.629333 2.048 7.168 4.565333 6.677333 10.709333 6.677333 15.36 7.168 40.96-1.024 177.152-65.066667 295.936-130.602666 2.581333-1.493333 4.629333-4.096 4.629334-7.168a9.877333 9.877333 0 0 0-3.072-8.192 96.725333 96.725333 0 0 1-34.346667-61.909334z m99.861334 55.296a69.696 69.696 0 0 0 0-139.264 69.696 69.696 0 0 0 0 139.264z m-44.032-164.394666c2.538667 2.048 5.610667 2.048 8.682666 1.024a103.168 103.168 0 0 1 35.349334-6.613334c12.288 0 24.042667 2.517333 35.306666 6.613334 1.024 0.554667 2.048 0.554667 3.626667 0.554666a8.746667 8.746667 0 0 0 5.12-1.578666 9.002667 9.002667 0 0 0 4.074667-7.637334 2105.813333 2105.813333 0 0 0-12.821334-211.968 602.112 602.112 0 0 0-12.288-72.704c-6.144-17.408-5.610667-30.72-23.018666-34.346666-17.408 3.626667-17.408 16.938667-23.061334 34.346666-13.312 53.717333-23.018667 171.477333-25.066666 284.672 0 2.517333 1.493333 5.589333 4.096 7.637334z m337.386666 225.28c-51.2-37.888-117.76-81.92-179.690666-119.253334a10.368 10.368 0 0 0-8.746667-0.554666c-2.517333 1.024-4.565333 3.626667-5.12 7.168a99.733333 99.733333 0 0 1-35.84 60.970666 10.24 10.24 0 0 0-3.541333 8.192c0 3.072 2.048 6.144 4.586666 7.637334 119.808 66.090667 261.12 136.256 302.08 137.216 4.629333 0 10.24-0.469333 14.869334-6.613334a13.994667 13.994667 0 0 0 2.048-7.168c-4.096-23.018667-39.466667-47.573333-90.666667-87.594666z m-283.648-14.336h-16.384a33.578667 33.578667 0 0 0-32.768 33.792l-16.384 413.226666c0 18.432 14.869333 33.792 32.768 33.792H428.8c17.941333 0 32.768-15.36 32.768-33.792l-16.32-413.226666a33.578667 33.578667 0 0 0-32.768-33.792h-0.064z" fill="#231815" p-id="1403"></path><path d="M696.618667 635.562667c0-2.048-1.557333-3.541333-3.072-4.565334-2.048-1.024-4.096-1.024-5.653334 0a1816.021333 1816.021333 0 0 0-112.64 73.237334c-31.744 24.042667-53.248 38.912-55.786666 53.248 0 1.024 0 3.072 1.024 4.586666 2.538667 4.096 6.613333 4.096 9.706666 4.629334 25.6-0.533333 111.616-40.96 186.901334-82.453334a7.509333 7.509333 0 0 0 3.072-4.586666c0-2.048-0.533333-4.096-2.048-5.12a63.082667 63.082667 0 0 1-21.504-38.912v-0.064z m63.488 34.816a44.032 44.032 0 1 0 0-88.064 44.032 44.032 0 0 0 0 88.064z m-28.181334-103.893334c1.642667 1.194667 3.84 1.386667 5.653334 0.469334a65.194667 65.194667 0 0 1 45.056 0c0.490667 0.554667 1.493333 0.554667 2.048 0.554666a9.493333 9.493333 0 0 0 3.562666-1.024 6.272 6.272 0 0 0 2.581334-5.12 1274.56 1274.56 0 0 0-8.192-134.144c-1.472-15.530667-4.053333-30.933333-7.701334-46.08-3.562667-10.794667-3.562667-19.456-14.826666-21.504-10.773333 2.517333-10.773333 10.709333-14.869334 21.504-8.682667 33.792-14.336 108.544-15.850666 179.669334 0 2.602667 1.024 4.650667 2.538666 5.674666z m212.992 142.336a1412.437333 1412.437333 0 0 0-113.664-75.242666c-1.493333-1.024-3.562667-1.024-5.610666-0.533334-1.557333 1.024-3.072 2.581333-3.072 4.629334a61.866667 61.866667 0 0 1-22.528 38.378666 4.842667 4.842667 0 0 0-2.048 5.12c0 2.048 1.024 3.626667 3.072 4.629334 75.776 41.450667 164.864 86.016 190.464 86.506666 3.072 0 6.613333-0.490667 9.216-4.096 1.024-1.493333 1.024-3.072 1.024-4.586666-2.048-13.866667-24.106667-29.696-56.853334-54.826667z m-179.2-8.682666h-10.24a21.162667 21.162667 0 0 0-20.48 21.504l-10.24 260.586666a21.162667 21.162667 0 0 0 20.48 21.504h31.253334a21.162667 21.162667 0 0 0 20.48-21.504l-10.24-260.586666a21.162667 21.162667 0 0 0-21.013334-21.504z" fill="#231815" p-id="1404"></path></svg>